<?xml version="1.0" encoding="UTF-8"?>
<svg id="Calque_2" data-name="Calque 2" xmlns="http://www.w3.org/2000/svg" xmlns:xlink="http://www.w3.org/1999/xlink" viewBox="0 0 393.13 163.67">
  <defs>
    <style>
      .cls-1 {
        fill: #4cbe78;
      }

      .cls-1, .cls-2, .cls-3, .cls-4, .cls-5, .cls-6, .cls-7, .cls-8, .cls-9, .cls-10, .cls-11, .cls-12, .cls-13, .cls-14, .cls-15, .cls-16, .cls-17, .cls-18, .cls-19, .cls-20, .cls-21, .cls-22, .cls-23, .cls-24, .cls-25, .cls-26 {
        stroke-width: 0px;
      }

      .cls-2 {
        fill: #137fc2;
      }

      .cls-3 {
        fill: #2ca198;
      }

      .cls-4 {
        fill: #35ad8f;
      }

      .cls-5 {
        fill: #197cb0;
      }

      .cls-6 {
        fill: #21aeb2;
      }

      .cls-7 {
        fill: #2c9f91;
      }

      .cls-8 {
        fill: #42ae76;
      }

      .cls-9 {
        fill: #247488;
      }

      .cls-10 {
        fill: #349881;
      }

      .cls-11 {
        fill: none;
      }

      .cls-12 {
        fill: #4ab874;
      }

      .cls-13 {
        fill: #126fb7;
      }

      .cls-14 {
        fill: #1e6599;
      }

      .cls-15 {
        fill: #2d908a;
      }

      .cls-16 {
        fill: #43b271;
      }

      .cls-17 {
        fill: #38988b;
      }

      .cls-18 {
        fill: #27a6a2;
      }

      .cls-19 {
        fill: #319c83;
      }

      .cls-20 {
        fill: #2e8789;
      }

      .cls-21 {
        fill: #1e6396;
      }

      .cls-22 {
        fill: url(#Dégradé_sans_nom_22);
      }

      .cls-23 {
        fill: #3fa77e;
      }

      .cls-24 {
        fill: #33957c;
      }

      .cls-25 {
        fill: #1c609d;
      }

      .cls-26 {
        fill: #267b90;
      }
    </style>
    <linearGradient id="Dégradé_sans_nom_22" data-name="Dégradé sans nom 22" x1="8.85" y1="148.22" x2="22.09" y2="148.22" gradientTransform="translate(148.89 81.82) rotate(69.5)" gradientUnits="userSpaceOnUse">
      <stop offset="0" stop-color="#0075be"/>
      <stop offset=".43" stop-color="#298e98"/>
      <stop offset=".57" stop-color="#38988b"/>
      <stop offset=".73" stop-color="#38988b"/>
    </linearGradient>
  </defs>
  <g id="Calque_1-2" data-name="Calque 1">
    <g>
      <path class="cls-21" d="M197.54,77.58v-20.64c2.36-.1,4.55-.2,6.91-.31v47.37h-6.56c-.09-1.09-.18-2.12-.31-3.63-4.51,3.94-9.49,5.68-15.19,4.23-3.4-.87-6.03-2.93-8-5.84-4.53-6.67-3.45-15.87,2.52-21.45,5.85-5.47,13.21-5.5,20.64.27ZM197.74,89.25c.04-5.35-4.22-9.96-9.28-10.06-5.32-.1-9.79,4.34-9.88,9.83-.09,5.47,3.98,9.79,9.29,9.85,5.63.07,9.82-4.03,9.86-9.63Z"/>
      <path class="cls-1" d="M122.61,148.21c4.28-5.61,5.69-11.9,5.56-18.95-.29-16.07-.08-32.15-.11-48.23-.02-10.21-4.52-17.61-13.91-21.96-.77-.36-1.11-1.67-1.59-2.57-.11-.22.02-.58.08-.88.19-.97.39-1.93.66-3.26,7.88,2.34,13.97,6.93,17.42,14.15,1.9,3.98,3.04,8.7,3.13,13.11.34,17.76.25,35.52.09,53.29-.06,6.91-2.3,13.21-7.04,18.45-1.43-1.05-2.86-2.1-4.29-3.15Z"/>
      <path class="cls-8" d="M331.71,103.97h-6.27c-.09-1.29-.17-2.44-.27-3.99-4.26,3.81-8.89,5.92-14.48,4.88-3.45-.64-6.3-2.32-8.51-5.06-5.1-6.31-4.63-16.15,1.06-22.11,5.64-5.9,13.3-5.91,21.88.15.11-1.15.21-2.17.33-3.38h6.27v29.51ZM324.86,89.08c0-5.41-4.2-9.84-9.4-9.88-5.28-.05-9.79,4.51-9.79,9.91,0,5.45,4.18,9.77,9.47,9.78,5.59,0,9.72-4.16,9.73-9.8Z"/>
      <path class="cls-25" d="M168.53,91.45h-22.93c-.07,7.46,7.15,9.25,18.52,4.7.88,1.37,1.77,2.77,2.66,4.16-7.33,6.08-19.38,6.86-25.47-.66-5.82-7.19-4.18-18.6,3.71-23.87,5.36-3.58,11.2-3.56,16.64-.42,5.94,3.43,7.18,9.32,6.86,16.08ZM145.36,86.7h16.47c-.33-4.66-3.45-7.64-7.85-7.64-4.59,0-8.17,3.14-8.62,7.64Z"/>
      <path class="cls-12" d="M393.01,91.46h-22.7c-.4,7.52,8,9.58,18.34,4.47.91,1.41,1.85,2.86,2.79,4.31-4.74,4.62-14.7,6.2-20.61,3.32-5.84-2.85-9.14-9.27-8.27-16.12,1.13-8.91,8.79-15.11,17.5-14.14,8.7.96,13.93,8.09,12.96,18.16ZM370.06,86.66h16.45c-.42-4.85-3.35-7.58-7.95-7.56-4.55.02-8.1,3.11-8.5,7.56Z"/>
      <path class="cls-14" d="M40.48,14.98c-2.46,3.93-3.31,8.05-2.57,12.76,1.67,10.57,2.92,21.21,4.45,31.81.95,6.58,3.7,12.49,7.15,18.1-3.38-.78-4.39,1.55-5.28,4.03-4.88-6.74-6.24-14.63-7.37-22.59-1.55-10.97-3.14-21.94-4.53-32.94-.94-7.38,1.25-13.67,7.34-18.32.27,2.38.54,4.76.82,7.14Z"/>
      <path class="cls-15" d="M67.81,91.03c9.73,3.06,17.21-1.62,24.45-7.1.78,2.28.05,5.26,3.03,6.52-3.93,2.58-7.72,5.4-11.84,7.64-2.66,1.45-4.21,3-3.98,6.14.08,1.12.04,2.83-.64,3.34-3.4,2.53-2.58,6.04-2.64,9.39-.02.89-.07,1.77-.1,2.66-.38-.87-.99-1.72-1.08-2.62-.23-2.34-.93-4.31-2.9-5.56-.68.63-1.22,1.13-1.75,1.62.05-1.92-.41-3.51-1.87-5.02-.88-.91-.81-2.69-1.26-4.06-.56-1.71-1.22-3.39-1.84-5.09-.25-.17-.51-.34-.76-.51,0,0-.13.08-.13.08,1.1-2.47,2.2-4.94,3.31-7.42Z"/>
      <path class="cls-24" d="M243.57,60.57c13.09-19.07,45.02-22.2,59.8-5.64-2.34,2.08-4.69,4.17-6.97,6.2-3.16-2.18-6.05-4.63-9.33-6.35-14.89-7.76-29.5-5.57-43.12,6.21-.35.32-.87.76-.96.68-.1-.09.32-.72.58-1.1Z"/>
      <path class="cls-10" d="M231.07,58.2c7.94-11.22,18.97-17.41,32.35-19.6,9.66-1.58,18.94-.16,27.76,4.12.85.41,1.65.94,2.31,1.75-3.24-.77-6.45-1.69-9.72-2.3-20.36-3.83-40.08,9.01-47.75,24.91-.21.44-.49.86-.74,1.28.09-.77.05-1.58.28-2.3.92-2.91-1.72-7.59-4.5-7.87Z"/>
      <path class="cls-6" d="M238.9,110.63c5.59,8.25,13.02,14.33,22.02,18.54,1.31.75,2.62,1.52,3.95,2.26,2.13,1.18,2.21,2.31.26,3.59-16.95-1.49-34.53-15.91-39.87-32.7.13-.89.25-1.78.36-2.54,2.98,2.7,5.95,5.51,9.07,8.14.84.71,2.16.85,3.25,1.25,0,0,.05.12.04.12.3.45.6.9.91,1.35Z"/>
      <path class="cls-16" d="M339.54,74.36h6.51c.05,1.15.1,2.19.18,3.99,3.69-4.74,8.05-6.18,13.6-4.38-.26,1.84-.52,3.65-.81,5.74-1.4-.18-2.63-.42-3.87-.49-5.17-.31-8.52,2.64-8.71,7.89-.16,4.56-.05,9.13-.06,13.7,0,.98,0,1.96,0,3.13h-6.84v-29.56Z"/>
      <path class="cls-3" d="M70.36,113.06c.53-.49,1.07-.99,1.75-1.62,1.97,1.25,2.67,3.22,2.9,5.56.09.9.71,1.75,1.08,2.62.04,3.36.22,6.73.09,10.08-.41,10.4,3.68,18.4,12.48,23.97-.2,1.97-.39,3.93-.59,5.9-9.87-4.65-15.9-12.49-17.23-23.14-.96-7.69-.38-15.56-.49-23.36Z"/>
      <path class="cls-20" d="M64.11,61.57c4.44,4.13,7.36,9.22,9.37,15.06,1.29-2.5,2.53-4.9,3.77-7.3,1.11,1.94,1.48,4.64,4.61,4.49-1.26,4.04-2.87,8.02-3.67,12.15-.56,2.9-2.28,3.19-4.38,3.19-2.29,0-4.41-.15-4.91-3.37-1.18-7.65-4.15-14.58-9.41-20.39,1.54-1.27,3.08-2.55,4.62-3.82Z"/>
      <path class="cls-19" d="M266.3,122.87c11.39.8,21.55-2.18,30.29-10.26,2.4,2.1,4.71,4.13,7.26,6.37-9.6,8.33-20.34,11.9-32.76,10.1.96-.33,1.91-.66,3.27-1.12-1.84-1.96-2.49-4.72-5.83-4.22-.69.1-1.48-.55-2.23-.86Z"/>
      <path class="cls-1" d="M107.21,7.48c6.19,4.41,8.52,10.61,7.59,17.88-1.19,9.23-2.84,18.4-4.29,27.59-2.96,1.16-3.7-.99-4.51-3.03,1.02-7.36,1.77-14.77,3.13-22.08,1.09-5.9-.23-10.77-4.37-14.99.82-1.79,1.63-3.59,2.45-5.38Z"/>
      <path class="cls-23" d="M106,49.92c.81,2.04,1.54,4.19,4.51,3.03-1.53,7.58-2.61,15.28-4.75,22.68-1.71,5.93-5.68,10.79-10.47,14.81-2.98-1.26-2.25-4.24-3.03-6.52,8.62-8.72,11.91-19.64,13.12-31.45.09-.86.41-1.7.62-2.55Z"/>
      <path class="cls-7" d="M231.07,58.2c2.78.27,5.41,4.96,4.5,7.87-.23.73-.19,1.53-.28,2.3-2.97,7.69-4.33,15.6-3.14,23.84-.6-1.01-1.16-2.04-1.8-3.03-1.41-2.18-2.75-4.42-4.34-6.46-.93-1.19-2.28-2.06-3.44-3.07.23-7.64,3.68-14.06,7.67-20.28.28-.4.56-.79.84-1.19h-.02Z"/>
      <path class="cls-9" d="M219.05,104h-7.03v-29.51h7.03v29.51Z"/>
      <path class="cls-5" d="M18.29,132.74c.99.63,1.98,1.26,2.98,1.89-1.57,1.33-3.15,2.65-4.72,3.98-6.02.2-9.79,3.1-10.87,8.35-.88,4.3,1.64,8.77,6.11,10.83l-.65,5.05C4.33,160.73-.3,154.41.02,147.67c.32-6.83,5.46-12.48,12.62-13.86,1.88-.36,3.77-.72,5.65-1.07Z"/>
      <path class="cls-26" d="M67.81,91.03c-1.1,2.47-2.2,4.94-3.31,7.42-8.23-2.96-14.69-8.15-19.41-15.51-.27-.43-.53-.85-.8-1.28,0,0-.05.02-.05.02.89-2.48,1.9-4.81,5.28-4.03,0,0-.04.05-.04.05.25.24.51.49.76.73,4.72,5.79,10.55,10.03,17.57,12.6Z"/>
      <path class="cls-18" d="M222.58,79.65c1.16,1.01,2.51,1.88,3.44,3.07,1.59,2.04,2.93,4.28,4.34,6.46.64.98,1.2,2.02,1.8,3.03,1.93,5.65,3.87,11.31,5.8,16.96-1.1-.4-2.41-.55-3.25-1.26-3.12-2.63-6.09-5.44-9.07-8.14-.11.77-.24,1.66-.36,2.54-2.8-7.33-3.89-14.86-2.69-22.67Z"/>
      <path class="cls-23" d="M107.21,7.48c-.82,1.79-1.63,3.59-2.45,5.38-1.54-.87-3.02-1.89-4.64-2.59-2.15-.93-4.08-1.2-6.19.82-2.49,2.39-6.49,1.61-8.71-1.1-2.05-2.51-1.74-5.93.76-8.28,2.45-2.31,5.88-2.15,8.63.06,1.29,1.03,2.99,1.56,4.54,2.25,2.67,1.18,5.37,2.31,8.06,3.46Z"/>
      <path class="cls-2" d="M18.29,132.74c-1.88.36-3.77.72-5.65,1.07.13-6.13.25-12.25.38-18.38,0-.39,0-.78,0-1.17,0-.4,0-.81,0-1.21,0-2.18,0-4.36,0-6.54,0-3.38,0-6.76,0-10.13,1.65-1.07,2.09.21,2.76,1.31.74,1.21,1.67,2.31,2.52,3.45,0,.6,0,1.2,0,1.8,0,.79,0,1.57,0,2.36,0,2.99,0,5.98,0,8.96,0,.59,0,1.17,0,1.76,0,5.57.01,11.14.02,16.71Z"/>
      <path class="cls-17" d="M16.54,138.6c1.57-1.33,3.15-2.65,4.72-3.98,5.96,2.39,9.05,6.95,9.33,13.21.12,2.62-.34,4.96-1.3,7.01,0,0-1.62,3.53-6.92,7.03-1.1.73-1.9.81-2.39.79-.18,0-.33-.03-.42-.05-.81-1.42-1.62-2.83-2.43-4.25.46-.18.92-.35,1.37-.54,4.27-1.74,7.19-5.88,7.04-9.97-.14-3.77-3.19-7.29-7.61-8.8-.47-.16-.93-.31-1.4-.46Z"/>
      <path class="cls-25" d="M13.07,76.69c.28-10.41,9.31-21.07,20.08-23.72,1.74,4.45,1.59,4.9-2.22,7.07-7.87,4.46-11.9,11.32-12.65,20.23-.11-1.31-.58-2.72-.24-3.9.8-2.82-.18-4.23-3.01-4.88-.68,1.8-1.31,3.5-1.95,5.2Z"/>
      <path class="cls-4" d="M88.08,159.55c.2-1.97.39-3.93.59-5.9,6.64,3.36,13.58,4.38,20.87,2.7.8,1.66,1.6,3.32,2.39,4.98-8.18,2.48-16.16,2.23-23.85-1.79Z"/>
      <path class="cls-13" d="M17.99,75.67c0,.75.03,1.83.14,3.12.07.81.14,1.4.15,1.48.18,1.78.27,7.09,0,20.88-.85-1.15-1.78-2.24-2.52-3.45-.67-1.1-1.11-2.38-2.76-1.31.02-6.56.05-13.13.07-19.69.16-.76.43-1.82.93-3.02.2-.49.54-1.3,1-2,.43-.66,1.53-2.07,4-3v5"/>
      <path class="cls-9" d="M64.11,61.57c-1.54,1.27-3.08,2.55-4.62,3.82-3.93-3.56-8.26-6.33-13.65-7.2-.53-.08-1.1-1.17-1.28-1.89-.36-1.4-.45-2.86-.7-4.63,8.3.65,14.75,4.29,20.25,9.89Z"/>
      <path class="cls-20" d="M51.05,3.76c1.86-2.08,3.76-4.18,6.94-3.68,2.95.47,4.73,2.3,5.34,5.2.59,2.79-.72,4.85-2.97,6.22-2.42,1.49-4.85,1.15-7.19-.49-.98-.68-2.15-1.09-3.24-1.62.37-1.88.74-3.76,1.11-5.64Z"/>
      <path class="cls-3" d="M266.3,122.87c.75.31,1.54.96,2.23.86,3.34-.5,3.99,2.26,5.83,4.22-1.36.47-2.32.79-3.27,1.12-12.55-1.84-21.7-8.83-28.76-19.01,6.64,6.82,14.52,11.29,23.98,12.81Z"/>
      <path class="cls-10" d="M81.86,73.82c-3.14.14-3.51-2.55-4.61-4.49,3.21-6.07,7.86-10.7,13.95-13.89-.31,2.28.08,4.24,2.45,5.27-5.13,3.29-8.93,7.78-11.79,13.11Z"/>
      <path class="cls-8" d="M111.93,161.34c-.8-1.66-1.6-3.32-2.39-4.98,5.05-1.62,9.31-4.48,13.07-8.16,1.43,1.05,2.86,2.1,4.29,3.15-3.78,5.13-8.81,8.41-14.96,9.98Z"/>
      <path class="cls-3" d="M265.13,135.02c1.95-1.28,1.87-2.4-.26-3.59-1.32-.74-2.63-1.51-3.95-2.26,11.28,4.23,22.5,3.81,34.11-.97-4.4,4.68-20.09,9.01-29.91,6.82Z"/>
      <path class="cls-23" d="M93.64,60.71c-2.38-1.03-2.76-2.99-2.45-5.27.23-.08.46-.15.69-.22.32-.19.64-.37.96-.56,3.17-1.08,6.35-2.17,10.02-3.42-.28,2.39-.33,3.95-.7,5.43-.17.66-.91,1.41-1.56,1.67-2.27.9-4.63,1.6-6.95,2.37Z"/>
      <path class="cls-9" d="M51.05,3.76c-.37,1.88-.74,3.76-1.11,5.64-3.69.96-6.95,2.63-9.45,5.59-.27-2.38-.54-4.76-.82-7.14,3.26-2.85,7.16-3.91,11.38-4.09Z"/>
      <path class="cls-9" d="M219.91,61.59c-.02,2.33-1.86,4.4-3.94,4.43-2.27.03-4.09-2.03-4.04-4.59.04-2.5,1.69-4.35,3.91-4.39,2.29-.04,4.09,1.98,4.07,4.56Z"/>
      <path class="cls-26" d="M17.14,158.37c.81,1.42,1.62,2.83,2.43,4.25-.82.41-2.45,1.08-4.58,1.05-1.72-.02-3.06-.49-3.86-.84.22-1.68.43-3.37.65-5.05,1.79.2,3.58.39,5.36.59Z"/>
      <path class="cls-13" d="M13,106.51c0,2.18,0,4.36,0,6.54,0-2.18,0-4.36,0-6.54Z"/>
      <path class="cls-18" d="M238.9,110.63c-.3-.45-.61-.9-.91-1.35.3.45.6.9.91,1.35Z"/>
      <path class="cls-13" d="M18.27,105.31c0-.79,0-1.57,0-2.36,0,.79,0,1.57,0,2.36Z"/>
      <path class="cls-13" d="M18.27,116.03c0-.59,0-1.17,0-1.76,0,.59,0,1.17,0,1.76Z"/>
      <path class="cls-14" d="M44.29,81.66c.27.43.53.85.8,1.28-.27-.43-.53-.85-.8-1.28Z"/>
      <path class="cls-13" d="M13.01,114.26c0,.39,0,.78,0,1.17,0-.39,0-.78,0-1.17Z"/>
      <path class="cls-10" d="M231.09,58.18c-.28.4-.56.79-.84,1.19.28-.4.56-.79.84-1.19Z"/>
      <path class="cls-10" d="M92.84,54.66c-.32.18-.64.37-.96.56.32-.18.64-.37.96-.56Z"/>
      <path class="cls-26" d="M64.63,98.37c.25.17.51.34.76.51-.25-.17-.51-.34-.76-.51Z"/>
      <path class="cls-14" d="M50.24,78.43c-.26-.24-.51-.48-.76-.73.26.24.51.48.76.73Z"/>
      <path class="cls-11" d="M17.14,158.37c-1.79-.2-3.58-.39-5.36-.59-4.47-2.06-7-6.53-6.11-10.83,1.08-5.25,4.86-8.15,10.87-8.35.47.15.94.3,1.4.46,4.43,1.51,7.48,5.03,7.61,8.8.15,4.09-2.77,8.23-7.04,9.97-.45.19-.91.36-1.37.54Z"/>
      <ellipse class="cls-22" cx="15.47" cy="148.22" rx="6.67" ry="6.61" transform="translate(-128.78 110.81) rotate(-69.5)"/>
    </g>
  </g>
</svg>